# xmcd
#
# Track frame offsets:
#	150
#	17523
#	32070
#	54402
#	81329
#	110579
#	132117
#	155845
#	170234
#	190005
#	207546
#	227101
#
# Disc length: 3328 seconds
# Revision: 1
# Processed by: cddbd v1.5.2PL0 Copyright (c) Steve Scherf et al.
# Submitted via: dBpowerAMP V12.0
#
DISCID=a40cfe0c
DTITLE=John Nemeth - Soul Live
DYEAR=2012
DGENRE=Blues Soul
TTITLE0=Blue Broadway
TTITLE1=Love Me Tonight
TTITLE2=Do You Really Want That Woman
TTITLE3=Said Too Much
TTITLE4=Funky Feelin'
TTITLE5=Magic Touch
TTITLE6=Fuel For Your Fire
TTITLE7=Too Good To Be True
TTITLE8=Name The Day
TTITLE9=Home In You're Heart
TTITLE10=My Future
TTITLE11=She's Looking Good
EXTD=
EXTT0=
EXTT1=
EXTT2=
EXTT3=
EXTT4=
EXTT5=
EXTT6=
EXTT7=
EXTT8=
EXTT9=
EXTT10=
EXTT11=
PLAYORDER=
